<?xml version="1.0" encoding="utf-8"?>
<!-- Generator: Adobe Illustrator 23.0.5, SVG Export Plug-In . SVG Version: 6.00 Build 0)  -->
<svg version="1.1" id="Layer_1" xmlns="http://www.w3.org/2000/svg" xmlns:xlink="http://www.w3.org/1999/xlink" x="0px" y="0px"
	 viewBox="0 0 512 512" style="enable-background:new 0 0 512 512;" xml:space="preserve">
<style type="text/css">
	.st0{fill:#FF6347;}
</style>
<path class="st0" d="M471,292.3V126.8c0-48.5-39.5-88-88.1-88h-56.4c-15.4,0-29.9,4-42.5,11C269.8,20.3,239.6,0,204.8,0H141
	C92.6,0,53.2,39.3,53.2,87.7v57.8c-8,5.1-13.2,13.9-13.2,23.9v18.2c0,15.7,12.9,28.5,28.8,28.5h4c5.9,33.2,28.4,60.9,58.6,74.3
	h-16.8c-36.8,0-66.8,29.9-66.8,66.7v142.4c0,6.9,5.6,12.5,12.5,12.5h398c6.7,0,12.2-5.5,12.2-12.2v-81.5c0-4.1-3.4-7.5-7.5-7.5
	c-4.1,0-7.5,3.4-7.5,7.5V497H314.4v-30.1h98.9c6.8,0,12.3-5.5,12.3-12.3v-73.8c0-4.1-3.4-7.5-7.5-7.5c-4.1,0-7.5,3.4-7.5,7.5v71.1
	h-82.9l24.8-65.4c3.6-9.6,5.4-19.4,5.5-29.1c18.9-1.6,34-17,34.8-35.9h15.6c26,0,47.2,21.1,47.2,47.1V382c0,4.1,3.4,7.5,7.5,7.5
	c4.1,0,7.5-3.4,7.5-7.5v-13.4c0-27.7-18.2-51.1-43.3-59.2h26.4C463.3,309.5,471,301.8,471,292.3z M326.5,53.8h56.4
	c40.3,0,73.1,32.7,73.1,73v165.5c0,1.2-1,2.2-2.2,2.2h-39.1c21-17.2,34.5-43.1,34.5-72.1v-95.1c0-6.8-5.5-12.3-12.3-12.3H388
	c-3.8,0-7.3,2.1-9.1,5.4c-11.6,21.6-34.1,35.1-58.7,35.1h-18.1c-2.3-4-5.6-7.5-9.5-10V87.7c0-8.2-1.1-16.2-3.3-23.8
	C300.2,57.5,312.9,53.8,326.5,53.8z M147.2,295.9c8.2,2.1,16.8,3.3,25.7,3.3c8.9,0,17.5-1.1,25.7-3.3v8.3c0,14-11.5,25.4-25.7,25.4
	c-14.2,0-25.7-11.4-25.7-25.4V295.9z M213.6,290.8c9-3.9,17.3-9.1,24.7-15.3v5.4c-9.2,4.4-17.6,10.4-24.7,17.8V290.8z M253.4,260
	c3.7-4.7,6.9-9.7,9.7-15c2.5,10,6.7,19.4,12.2,27.8c-0.4,0-0.8,0-1.2,0c-7.1,0-14.1,0.9-20.8,2.7V260z M274.6,198.5V156h2.4
	c7.6,0,13.8,6,13.8,13.4v18.2c0,7.4-6.2,13.5-13.8,13.5h-2.5C274.6,200.2,274.6,199.4,274.6,198.5z M303.9,278.3
	c-2.3-0.9-4.7-1.7-7.1-2.3c-13.3-14-21.5-32.9-21.5-53.6v-6.3h1.8c11.9,0,22.2-7.2,26.5-17.4v10.4c0,4.1,3.4,7.5,7.5,7.5
	c4.1,0,7.5-3.4,7.5-7.5v-19.2c0-4.1-3.4-7.5-7.5-7.5c-2,0-3.9,0.8-5.2,2.1v-14.1h14.4c29.2,0,56-15.5,70.5-40.5h43.4v92.4
	c0,43.2-35.6,78.4-79.5,78.4c-7.1,0-14.1-0.9-20.6-2.7C325.8,289.6,315.6,282.8,303.9,278.3z M68.8,201.1c-7.6,0-13.8-6-13.8-13.5
	v-18.2c0-7.4,6.2-13.4,13.8-13.4h2.4v42.5c0,0.9,0,1.8,0,2.6H68.8z M86.2,198.5v-56.9H107c-2.5,1.2-4.9,2.6-7.1,4.2
	c-3.4,2.4-4.1,7.1-1.7,10.5c1.5,2,3.8,3.1,6.1,3.1c1.5,0,3.1-0.5,4.4-1.4c10.3-7.5,24.2-7.5,34.5,0c3.4,2.4,8,1.7,10.5-1.7
	c2.4-3.4,1.7-8-1.7-10.5c-2.6-1.9-5.2-3.4-8-4.6c28.2-2.7,53.4-18.8,67.6-43.6h5.9c4.1,0,7.5-3.4,7.5-7.5c0-4.1-3.4-7.5-7.5-7.5H209
	c-3.9,0-7.5,2.1-9.3,5.6c-12.7,23.7-37.3,38.4-64.1,38.4H81.8c-5.8,0-10.6,4.7-10.6,10.6v3.8h-2.4c-0.2,0-0.4,0-0.5,0V87.7
	C68.2,47.6,100.9,15,141,15h63.8c40.1,0,72.8,32.6,72.8,72.7V141c-0.2,0-0.4,0-0.5,0h-2.4V95.3c0-7-5.7-12.7-12.7-12.7h-8.4
	c-4.1,0-7.5,3.4-7.5,7.5c0,4.1,3.4,7.5,7.5,7.5h6.1v100.9c0,47.3-38.9,85.7-86.7,85.7S86.2,245.7,86.2,198.5z M211.5,497H62.9V357.1
	c0-28.5,23.2-51.7,51.8-51.7h17.5c0.7,21.7,18.6,39.2,40.7,39.2c6.3,0,12.2-1.4,17.6-4l-36.8,96.8c-1.5,4.1-2.8,8.2-3.6,12.4h-40
	v-18.5c0-4.1-3.4-7.5-7.5-7.5c-4.1,0-7.5,3.4-7.5,7.5v21c0,6.9,5.6,12.5,12.5,12.5h103.9V497z M254.6,497h-28.2v-32.2h7.2v16.1
	c0,4.1,3.4,7.5,7.5,7.5h13.4V497z M299.4,497h-29.8v-7.5h16c4.1,0,7.5-3.4,7.5-7.5v-15h6.3V497z M338.5,381.2l-26.9,70.7h-22.1
	c-6.3,0-11.4,5.1-11.4,11.4v11.1h-11.6c-1.5-0.7-3.1-1-4.8-1h-13v-12c0-6.4-5.2-11.6-11.6-11.6h-71.6c0.6-2.4,1.4-4.8,2.3-7.1
	l41.9-110.4c10.1-26.6,36-44.5,64.4-44.5c8.3,0,16.6,1.5,24.4,4.5C334.1,305.8,352,345.7,338.5,381.2z M356.7,342.5
	c-1.7-9.5-4.9-18.7-9.7-27.1c2.5,0.2,5,0.3,7.6,0.3c8,0,15.8-1,23.2-2.9v6.9C377.9,331.7,368.6,341.5,356.7,342.5z"/>
<path class="st0" d="M351.5,233.6h11.4c4.1,0,7.5-3.4,7.5-7.5c0-4.1-3.4-7.5-7.5-7.5H354v-16.6c0-4.1-3.4-7.5-7.5-7.5
	c-4.1,0-7.5,3.4-7.5,7.5v19.1C339,228,344.6,233.6,351.5,233.6z"/>
<path class="st0" d="M391.7,250.8c-2.9-2.9-7.7-3-10.6-0.1c-14.6,14.4-38.3,14.4-52.8,0c-2.9-2.9-7.7-2.9-10.6,0.1
	c-2.9,2.9-2.9,7.7,0.1,10.6c10.2,10.1,23.6,15.1,37,15.1c13.4,0,26.8-5,37-15.1C394.6,258.5,394.6,253.7,391.7,250.8z"/>
<path class="st0" d="M398.3,182.4c-4.1,0-7.5,3.4-7.5,7.5v19.2c0,4.1,3.4,7.5,7.5,7.5s7.5-3.4,7.5-7.5v-19.2
	C405.8,185.8,402.4,182.4,398.3,182.4z"/>
<path class="st0" d="M385.8,171.4h27.4c4.1,0,7.5-3.4,7.5-7.5c0-4.1-3.4-7.5-7.5-7.5h-27.4c-4.1,0-7.5,3.4-7.5,7.5
	C378.3,168.1,381.7,171.4,385.8,171.4z"/>
<path class="st0" d="M169.1,219.8h12.7c4.1,0,7.5-3.4,7.5-7.5c0-4.1-3.4-7.5-7.5-7.5h-10.2v-26.3c0-4.1-3.4-7.5-7.5-7.5
	s-7.5,3.4-7.5,7.5v28.8C156.6,214.2,162.2,219.8,169.1,219.8z"/>
<path class="st0" d="M212.5,240.4c2.9-2.9,3-7.7,0.1-10.6s-7.7-3-10.6-0.1c-16,15.9-42.1,15.9-58.1,0c-2.9-2.9-7.7-2.9-10.6,0.1
	c-2.9,2.9-2.9,7.7,0.1,10.6c10.9,10.8,25.3,16.2,39.6,16.2C187.3,256.6,201.6,251.2,212.5,240.4z"/>
<path class="st0" d="M133.7,181.3v-15.2c0-4.1-3.4-7.5-7.5-7.5s-7.5,3.4-7.5,7.5v15.2c0,4.1,3.4,7.5,7.5,7.5
	S133.7,185.4,133.7,181.3z"/>
<path class="st0" d="M220.7,158.6c-4.1,0-7.5,3.4-7.5,7.5v15.2c0,4.1,3.4,7.5,7.5,7.5c4.1,0,7.5-3.4,7.5-7.5v-15.2
	C228.2,161.9,224.8,158.6,220.7,158.6z"/>
<path class="st0" d="M199.3,159.4c1.5,0,3.1-0.5,4.4-1.4c10.3-7.5,24.2-7.5,34.5,0c3.3,2.4,8,1.7,10.5-1.7c2.4-3.4,1.7-8-1.7-10.5
	c-15.6-11.3-36.5-11.3-52.1,0c-3.4,2.4-4.1,7.1-1.7,10.5C194.7,158.3,196.9,159.4,199.3,159.4z"/>
<path class="st0" d="M293.7,305.1c-6.8-2.6-14-3.9-21.2-3.9c-24.6,0-47.1,15.5-55.8,38.5c-5.7,14.9-5.2,31.1,1.4,45.7
	c6.5,14.5,18.4,25.7,33.3,31.3c6.8,2.6,14,3.9,21.2,3.9c24.6,0,47.1-15.5,55.8-38.5C340,351.3,324.5,316.8,293.7,305.1z
	 M314.3,376.8c-6.6,17.3-23.4,28.9-41.8,28.9c-5.4,0-10.8-1-15.9-2.9c-11.2-4.2-20-12.6-24.9-23.5c-4.9-10.9-5.3-23-1-34.2
	c6.6-17.3,23.4-28.9,41.8-28.9c5.4,0,10.8,1,15.9,2.9C311.4,327.9,323.1,353.7,314.3,376.8z"/>
<path class="st0" d="M254.3,350c0.9,0.3,1.8,0.5,2.7,0.5c3,0,5.9-1.8,7-4.8l1.7-4.6c1.5-3.9-0.5-8.2-4.3-9.7s-8.2,0.5-9.7,4.3
	l-1.7,4.6C248.5,344.2,250.5,348.5,254.3,350z"/>
<path class="st0" d="M300.4,346.2c-3.9-1.5-8.2,0.5-9.7,4.4l-1.7,4.6c-1.5,3.9,0.5,8.2,4.3,9.7c0.9,0.3,1.8,0.5,2.7,0.5
	c3,0,5.9-1.8,7-4.8l1.7-4.6C306.2,352,304.3,347.7,300.4,346.2z"/>
<path class="st0" d="M286.4,369.7c-3.9-1.5-8.2,0.5-9.7,4.3c-1.7,4.4-6.7,6.7-11.1,5c-2.2-0.8-3.9-2.4-4.8-4.5
	c-0.9-2.1-1-4.4-0.2-6.6c1.5-3.9-0.5-8.2-4.3-9.7c-3.9-1.5-8.2,0.5-9.7,4.3c-2.2,5.9-2.1,12.3,0.5,18.1s7.3,10.2,13.2,12.4
	c2.8,1,5.6,1.5,8.4,1.5c9.5,0,18.5-5.8,22.1-15.2C292.2,375.5,290.3,371.2,286.4,369.7z"/>
<path class="st0" d="M102.6,403.5c4.1,0,7.5-3.4,7.5-7.5v-21.2c0-4.1-3.4-7.5-7.5-7.5c-4.1,0-7.5,3.4-7.5,7.5V396
	C95.1,400.1,98.4,403.5,102.6,403.5z"/>
</svg>
