<?xml version="1.0" encoding="utf-8"?>
<!-- Generator: Adobe Illustrator 23.0.5, SVG Export Plug-In . SVG Version: 6.00 Build 0)  -->
<svg version="1.1" id="Capa_1" xmlns="http://www.w3.org/2000/svg" xmlns:xlink="http://www.w3.org/1999/xlink" x="0px" y="0px"
	 viewBox="0 0 512 512" style="enable-background:new 0 0 512 512;" xml:space="preserve">
<style type="text/css">
	.st0{fill:#2196F3;}
	.st1{fill:#2D2D2D;}
</style>
<path class="st0" d="M0.8,252c-1.6,4-0.7,8.6,2.3,11.6l192,192c4.2,4.1,11,4,15.1-0.3c4-4.1,4-10.7,0-14.8L36.4,266.8h464.9
	c5.9,0,10.7-4.8,10.7-10.7c0-5.9-4.8-10.7-10.7-10.7H36.4L210.2,71.7c4.2-4.1,4.4-10.8,0.3-15.1c-4.1-4.2-10.8-4.4-15.1-0.3
	c-0.1,0.1-0.2,0.2-0.3,0.3l-192,192C2.1,249.6,1.3,250.8,0.8,252z"/>
<path class="st1" d="M202.7,53.5c5.9,0,10.7,4.8,10.7,10.6c0,2.8-1.1,5.6-3.1,7.6L25.7,256.1l184.5,184.4c4.1,4.2,4,11-0.3,15.1
	c-4.1,4-10.7,4-14.8,0l-192-192c-4.2-4.2-4.2-10.9,0-15.1l192-192C197.1,54.6,199.8,53.5,202.7,53.5z"/>
<path class="st1" d="M10.7,245.5h490.7c5.9,0,10.7,4.8,10.7,10.7c0,5.9-4.8,10.7-10.7,10.7H10.7C4.8,266.8,0,262,0,256.1
	C0,250.2,4.8,245.5,10.7,245.5z"/>
</svg>
