<?xml version="1.0" encoding="utf-8"?>
<!-- Generator: Adobe Illustrator 23.0.5, SVG Export Plug-In . SVG Version: 6.00 Build 0)  -->
<svg version="1.1" id="Capa_1" xmlns="http://www.w3.org/2000/svg" xmlns:xlink="http://www.w3.org/1999/xlink" x="0px" y="0px"
	 viewBox="0 0 496 496" style="enable-background:new 0 0 496 496;" xml:space="preserve">
<style type="text/css">
	.st0{fill:#FF6347;}
</style>
<g>
	<g>
		<path class="st0" d="M217.5,96h-14.4l-19.7-64h-27.8l-19.7,64h-14.4v16h9.5l-9.1,29.6l15.3,4.7l10.6-34.4h43.6l10.6,34.4l15.3-4.7
			L208,112h9.5V96z M152.7,96l14.8-48h4.2l14.8,48H152.7z"/>
	</g>
</g>
<g>
	<g>
		<path class="st0" d="M294.7,88c6.7-5.9,10.9-14.5,10.9-24c0-17.6-14.4-32-32-32h-32v112h32c17.6,0,32-14.4,32-32
			C305.5,102.5,301.3,93.9,294.7,88z M273.5,128h-16V96h16c8.8,0,16,7.2,16,16S282.4,128,273.5,128z M273.5,80h-16V48h16
			c8.8,0,16,7.2,16,16S282.4,80,273.5,80z"/>
	</g>
</g>
<g>
	<g>
		<path class="st0" d="M377.5,48V32c-30.9,0-56,25.1-56,56s25.1,56,56,56v-16c-22.1,0-40-17.9-40-40S355.5,48,377.5,48z"/>
	</g>
</g>
<g>
	<g>
		<path class="st0" d="M97.5,160v144h304V160H97.5z M385.5,288h-272V176h272V288z"/>
	</g>
</g>
<g>
	<g>
		<rect x="105.5" y="320" class="st0" width="288" height="16"/>
	</g>
</g>
<g>
	<g>
		<rect x="105.5" y="352" class="st0" width="288" height="16"/>
	</g>
</g>
<g>
	<g>
		<rect x="377.5" y="384" class="st0" width="16" height="16"/>
	</g>
</g>
<g>
	<g>
		<rect x="105.5" y="384" class="st0" width="256" height="16"/>
	</g>
</g>
<g>
	<g>
		<path class="st0" d="M494.5,32h-60.9V0h-392c-22.1,0-40,17.9-40,40v416c0,22.1,17.9,40,40,40h368h24v-16h-24
			c-13.2,0-24-10.8-24-24s10.8-24,24-24h16h8V112h60.9l-20-40L494.5,32z M377.7,480H41.5c-13.2,0-24-10.8-24-24s10.8-24,24-24h336.2
			c-5.1,6.7-8.2,15-8.2,24S372.7,473.3,377.7,480z M417.5,416h-8h-328v-32h-16v32h-24c-9,0-17.3,3-24,8V40c0-13.2,10.8-24,24-24h24
			v352h16V16h336V416z M468.6,96h-35.1V48h35.1l-12,24L468.6,96z"/>
	</g>
</g>
<g>
	<g>
		<rect x="65.5" y="448" class="st0" width="288" height="16"/>
	</g>
</g>
<g>
	<g>
		<rect x="33.5" y="448" class="st0" width="16" height="16"/>
	</g>
</g>
</svg>
